<svg width="16" height="19" viewBox="0 0 16 19" fill="none" xmlns="http://www.w3.org/2000/svg">
<path fill-rule="evenodd" clip-rule="evenodd" d="M9.00001 1.07728C8.38121 0.72001 7.61881 0.72001 7.00001 1.07728L1.20578 4.42257C0.586978 4.77984 0.20578 5.44009 0.20578 6.15462V12.8452C0.20578 13.5598 0.586978 14.22 1.20578 14.5773L7.00001 17.9226C7.61881 18.2798 8.38121 18.2798 9.00001 17.9226L14.7942 14.5773C15.413 14.22 15.7942 13.5598 15.7942 12.8452V6.15463C15.7942 5.44009 15.413 4.77984 14.7942 4.42257L9.00001 1.07728ZM2.00001 7.99993L8.00001 4.99993L14 7.99993V11.9999H12.9091V8.54493L8.00001 10.9999L2.00001 7.99993ZM4.18183 12.0899V10.0899L8.00001 11.9999L11.8182 10.0899V12.0899L8.00001 13.9999L4.18183 12.0899Z" fill="url(#paint0_linear_2_3569)"/>
<defs>
<linearGradient id="paint0_linear_2_3569" x1="8.00001" y1="0.809326" x2="8.00001" y2="18.1905" gradientUnits="userSpaceOnUse">
<stop stop-color="#FFE600"/>
<stop offset="1" stop-color="#FF8A00"/>
</linearGradient>
</defs>
</svg>
