<svg width="22" height="22" viewBox="0 0 22 22" fill="none" xmlns="http://www.w3.org/2000/svg">
<path fill-rule="evenodd" clip-rule="evenodd" d="M20.8292 4.39587C21.1705 4.74125 21.4156 5.17071 21.54 5.64126C22 7.37805 22 10.9999 22 10.9999C22 10.9999 22 14.6218 21.54 16.3586C21.4156 16.8291 21.1705 17.2586 20.8292 17.604C20.4878 17.9493 20.0622 18.1985 19.595 18.3266C17.875 18.7916 11 18.7916 11 18.7916C11 18.7916 4.125 18.7916 2.405 18.3266C1.93777 18.1985 1.51219 17.9493 1.17085 17.604C0.829506 17.2586 0.58438 16.8291 0.46 16.3586C0 14.6218 0 10.9999 0 10.9999C0 10.9999 0 7.37805 0.46 5.64126C0.58438 5.17071 0.829506 4.74125 1.17085 4.39587C1.51219 4.05049 1.93777 3.8013 2.405 3.67324C4.125 3.20825 11 3.20825 11 3.20825C11 3.20825 17.875 3.20825 19.595 3.67324C20.0622 3.8013 20.4878 4.05049 20.8292 4.39587ZM14.5 10.9999L8.74996 7.71111V14.2888L14.5 10.9999Z" fill="white"/>
</svg>
